 <svg viewBox="0 0 24 24" fill="none" xmlns="http://www.w3.org/2000/svg">
            <g clip-path="url(#clip0_9120_83235)">
              <path
                d="M9.0044 2.44696C8.5738 2.43424 8.2722 2.66862 7.95788 3.32995C7.7762 3.77508 7.73259 4.26382 7.73259 4.79798C7.86704 5.37574 8.00149 5.9535 8.18136 6.53126C8.44299 7.33068 9.01166 8.99129 9.44589 10.2649C9.46951 10.2758 9.49313 10.2849 9.52947 10.3012C9.70207 10.4084 9.77111 10.4666 9.84742 10.5338C9.93645 10.6119 10.0364 10.7137 10.1381 10.8245C10.229 10.6228 10.367 10.4321 10.5651 10.2649C11.1029 9.90881 11.7333 10.1323 12.3183 10.1323C12.3183 10.1323 12.6 10.1595 12.947 10.1922C12.451 8.68788 11.5662 5.90445 10.9957 4.77618C10.6814 4.15299 10.367 3.57523 9.9637 3.04289C9.78383 2.77581 9.55854 2.55415 9.1988 2.46513C9.13158 2.45423 9.06617 2.44696 9.0044 2.44696ZM17.4328 2.97385C17.1548 2.99747 16.8496 3.16099 16.5353 3.44987C16.4463 3.53889 16.31 3.62792 16.2646 3.76055C15.7704 4.33831 15.4106 5.05052 15.0963 5.71731C14.5567 6.7402 13.77 8.95132 13.4103 10.0632C13.3939 10.1232 13.3703 10.1759 13.3503 10.234C13.6519 10.2631 13.9517 10.294 14.1152 10.3103C14.6167 10.3648 15.8921 10.5265 16.7751 10.6537C17.1385 9.61629 17.7417 7.91208 18.0287 7.06542C18.2522 6.30961 18.4775 5.55379 18.5683 4.79798C18.612 4.26382 18.5211 3.77508 18.1614 3.32995C17.9597 3.06469 17.7108 2.95023 17.4328 2.97385ZM8.54836 10.7228C8.49931 10.7209 8.44844 10.7246 8.39393 10.7355C7.9161 10.8245 7.51275 11.1098 7.19299 11.4659C7.17118 11.4895 7.15483 11.5149 7.13485 11.5385C7.02038 11.722 6.95316 11.911 6.96406 12.0781V12.1217C6.96406 12.4651 7.10033 12.6105 7.18935 12.834C7.50367 13.4535 8.13412 14.2547 8.82271 15.0142C8.85541 15.0487 8.88812 15.0832 8.919 15.1177C9.10977 15.3249 9.30418 15.532 9.49677 15.7355C9.82562 16.0589 10.2017 16.5967 10.7322 16.3659C11.0647 16.2188 11.3936 15.8463 11.5117 15.5029C11.5371 15.4357 11.5498 15.3685 11.5498 15.3012C11.5498 14.5582 9.93463 12.0291 9.3496 11.2733C9.13884 11.0007 8.89538 10.7318 8.54836 10.7228ZM12.2729 10.8445C11.9586 10.8445 11.6879 10.8445 11.3736 10.9317C11.1483 11.0207 10.9684 11.1552 10.9684 11.4204C10.9503 11.6403 10.9811 11.8401 11.0411 12.0273C11.1319 12.1744 11.221 12.3307 11.3082 12.4924C11.3809 12.5687 11.4572 12.645 11.5535 12.7122C11.8678 12.9339 12.2729 13.0665 12.6763 13.1555C13.5774 13.3336 14.5204 13.3336 15.4652 13.3336C15.6886 13.3336 15.8703 13.3336 16.0956 13.379C16.3191 13.4226 16.3645 13.6007 16.4099 13.8223C16.4535 14.0004 16.3191 14.0894 16.1846 14.1348C15.9157 14.2675 15.6886 14.3565 15.4197 14.4437C14.3405 14.8452 13.532 15.5556 12.947 16.5349C12.5418 17.2453 12.4074 18.0011 12.7235 18.8023C12.8125 18.9786 12.858 19.1566 12.9016 19.3783C12.947 19.5582 12.9924 19.7798 12.947 20.0015C12.4982 19.9124 12.2275 19.6908 12.004 19.3347C11.8242 18.9786 11.7333 18.5789 11.6879 18.1792C11.6443 17.9575 11.6425 17.734 11.6425 17.5124C11.6734 17.2362 11.7152 17.0091 11.766 16.8129C11.637 16.9473 11.4899 17.0763 11.3064 17.1835C11.0774 17.3343 10.7322 17.3507 10.4397 17.3252C10.4633 17.3761 10.487 17.427 10.5069 17.476C10.5069 17.5651 10.5524 17.6087 10.5524 17.6541C10.6868 18.1882 10.4615 18.677 10.0128 18.9877C9.65302 19.2547 9.20425 19.2529 8.79909 19.1657C8.07961 18.9877 7.42373 18.5098 6.97496 17.9321C6.74967 17.6214 6.52438 17.2653 6.48078 16.911C6.34451 16.5549 6.34451 16.3768 6.5698 16.1552C6.61341 16.2424 6.70425 16.2878 6.74967 16.375C6.97315 16.6421 7.15302 16.911 7.37831 17.1762C7.6472 17.4887 8.03419 17.8321 8.39393 17.9648C8.70825 18.0974 8.97896 18.0974 9.29328 17.9648C9.56217 17.8321 9.60759 17.6541 9.56399 17.387C9.51857 17.298 9.47315 17.209 9.42773 17.1217C9.11341 16.4986 8.70825 15.9208 8.21406 15.4302C7.94517 15.165 6.74422 13.8023 5.99386 14.1657C5.47242 14.4982 5.13267 15.0106 5.03456 15.6901C4.94553 16.4459 5.03456 17.1127 5.25985 17.8231C5.71043 19.2457 7.23841 20.8009 8.76639 21.4241C9.93463 21.9128 11.1501 22.0909 12.4074 21.9564C13.3085 21.9128 14.2061 21.6475 15.0146 21.246C16.6334 20.4466 17.7126 19.1566 18.3867 17.5124C18.7028 16.7129 18.8827 15.8227 18.9263 14.9342C18.9335 14.8343 18.9372 14.7344 18.9408 14.6363C18.9408 14.3547 18.9408 13.8732 18.9154 13.439C18.8972 13.2718 18.8699 13.101 18.8372 12.9321C18.8045 12.7903 18.7646 12.6486 18.7191 12.5087C18.5811 12.2398 18.3812 12.0091 18.0923 11.8674C17.867 11.7784 17.689 11.6893 17.4637 11.6003C16.0702 11.1098 13.7119 10.9771 12.2729 10.8445ZM12.0131 13.9113C12.1839 14.1821 12.3565 14.4564 12.4092 14.8234C12.4364 15.0106 12.4383 15.3303 12.3601 15.6864C12.4037 15.6301 12.4492 15.572 12.4982 15.5102C12.8561 14.9778 13.3521 14.6217 13.8899 14.222C13.2268 14.1802 12.6018 14.0967 12.0131 13.9113Z"
                fill="#000000"></path>
            </g>
            <defs>
              <clipPath id="clip0_9120_83235">
                <rect width="13.9535" height="20" fill="white" transform="translate(5 2)"></rect>
              </clipPath>
            </defs>
  </svg>